<svg id="Layer_1" data-name="Layer 1" xmlns="http://www.w3.org/2000/svg" viewBox="0 0 115.6 115.6"><defs><style>.cls-1{fill:#3899d4;}.cls-2{fill:#fff;}</style></defs><title>icons</title><circle class="cls-1" cx="57.8" cy="57.8" r="57.8"/><path class="cls-2" d="M62.62,76.57v5h6.49a1,1,0,0,1,1.18,1,1.06,1.06,0,0,1-1.18,1.06H46.5a1.05,1.05,0,1,1,0-2.09h7v-5H53c-6.34,0-12.67,0-19,0a3.14,3.14,0,0,1-3.22-3.21c0-11.25,0-22.49,0-33.74A3,3,0,0,1,34,36.45H81.65A3,3,0,0,1,84.8,39.6q0,16.94,0,33.89a3,3,0,0,1-3.09,3.08H62.62Zm20.09-8.34v-.41q0-14,0-28.08c0-.92-.29-1.2-1.21-1.2H34.11c-.93,0-1.21.28-1.21,1.2q0,14,0,28.08v.41Zm0,2.12H32.91c0,1.13,0,2.24,0,3.35a1,1,0,0,0,.43.64,1.67,1.67,0,0,0,.83.15H81.42a4,4,0,0,0,.52,0,.82.82,0,0,0,.76-.79C82.71,72.58,82.7,71.48,82.7,70.36Z"/><path class="cls-2" d="M50.32,54.12c1.38,1.38,2.69,2.67,4,4a1.22,1.22,0,0,1,.35.66.65.65,0,0,1-1,.59,1.56,1.56,0,0,1-.31-.27L49,54.8c-.47-.47-.47-.81,0-1.27,1.44-1.44,2.87-2.89,4.33-4.31A1.11,1.11,0,0,1,54,48.9a.65.65,0,0,1,.57,1,2.27,2.27,0,0,1-.34.4l-3.55,3.55A3.2,3.2,0,0,1,50.32,54.12Z"/><path class="cls-2" d="M65.89,54.12a3.36,3.36,0,0,1-.4-.29L61.8,50.15a.73.73,0,0,1-.22-.91.61.61,0,0,1,.72-.35,1,1,0,0,1,.44.25Q65,51.36,67.2,53.59a.7.7,0,0,1,0,1.14l-4.42,4.42a.7.7,0,0,1-1.06.1.72.72,0,0,1,.08-1.09q1.82-1.84,3.65-3.66C65.55,54.4,65.67,54.31,65.89,54.12Z"/><path class="cls-2" d="M55.71,60l.37-1.49,2.63-10.39c.11-.44.35-.65.7-.66a.66.66,0,0,1,.67.54,1.41,1.41,0,0,1,0,.55q-1.45,5.78-2.92,11.55c-.14.57-.53.84-1,.67A.73.73,0,0,1,55.71,60Z"/></svg>