<svg id="Layer_1" data-name="Layer 1" xmlns="http://www.w3.org/2000/svg" viewBox="0 0 115.59 115.59"><defs><style>.cls-1{fill:#995ea6;}.cls-2{fill:#fff;}</style></defs><title>icons</title><circle class="cls-1" cx="57.8" cy="57.8" r="57.8" transform="translate(-0.53 0.54) rotate(-0.53)"/><path class="cls-2" d="M66,43.62l8.86-10c.28-.31.57-.62.87-.91a2.23,2.23,0,0,0,.84-2.13,2.11,2.11,0,0,1,1.18-2.07c1.29-.82,2.6-1.6,3.91-2.39,1.65-1,3.3-2,5-3a10,10,0,0,1,1.61-.83,2.35,2.35,0,0,1,3.3,2.34,3.73,3.73,0,0,1-2.81,3.78,2.51,2.51,0,0,0-1.87,1.78,6.92,6.92,0,0,1-4.95,4.35,2.1,2.1,0,0,0-.94.63C79.7,36.6,78.5,38,77.28,39.46L65.71,53q-3.61,4.25-7.21,8.51a3.21,3.21,0,0,0-.39.49c-.19.34-.8.54-.41,1.1a1.86,1.86,0,0,0,2,.93,11.3,11.3,0,0,0,1.42-.8c.29-.17.56-.38.85-.54a2.36,2.36,0,0,1,2.67.06,2.51,2.51,0,0,1,1,2.3A6.1,6.1,0,0,1,63.82,69a13.48,13.48,0,0,1-4.61,3.22,5.45,5.45,0,0,0-3.15,3.61c-.56,1.78-1,3.59-1.74,5.31a10.87,10.87,0,0,1-5,5.84,7.86,7.86,0,0,1-5.45.6A17.79,17.79,0,0,1,35,82.39a21.94,21.94,0,0,1-5-7.45,9,9,0,0,1-.7-5.35,7.65,7.65,0,0,1,3.7-5c2-1.18,4-2.18,6.07-3.28a22.38,22.38,0,0,0,2.59-1.53A7.8,7.8,0,0,0,44,56.07a22.12,22.12,0,0,1,3.06-6,8.18,8.18,0,0,1,4.7-3.37,3.81,3.81,0,0,1,1.55,0A2.36,2.36,0,0,1,55,50.34c-.43.84-1,1.61-1.41,2.45A1.75,1.75,0,0,0,53.82,55c.64.66,1,.68,1.61,0,1.4-1.54,2.81-3.07,4.19-4.62,2.06-2.3,4.1-4.62,6.15-6.93ZM53.39,49.07l-.15-.29a4.11,4.11,0,0,0-1.42.13,8.34,8.34,0,0,0-2,1.34c-1.87,1.73-2.79,4-3.74,6.33a20.55,20.55,0,0,1-1.82,3.49,9.51,9.51,0,0,1-4.36,3.19,30.25,30.25,0,0,0-6.36,3.52c-1.58,1.23-2.63,2.8-2.25,4.87a15.07,15.07,0,0,0,1.26,3.86,20.5,20.5,0,0,0,6.18,7.35,14,14,0,0,0,5.64,2.67,5.89,5.89,0,0,0,5-1,7.67,7.67,0,0,0,2.5-3,40.14,40.14,0,0,0,1.91-5.24c.79-2.81,2.18-5,5-6.17a9.1,9.1,0,0,0,4-3.09,8.59,8.59,0,0,0,.89-1.91.59.59,0,0,0-.17-.54.67.67,0,0,0-.56.07c-.5.3-1,.66-1.47,1a3.89,3.89,0,0,1-5.65-1.66,2.16,2.16,0,0,1,.17-2.54q2.67-3.19,5.37-6.35l6.62-7.77q5.94-7,11.87-14A2,2,0,0,1,81,32.6a4.88,4.88,0,0,0,4-3.46,3.53,3.53,0,0,1,2.69-2.56,3.86,3.86,0,0,0,.83-.29,1.6,1.6,0,0,0,.66-2.17c-.48.25-1,.47-1.43.75-1.69,1-3.37,2-5.06,3-1.22.73-2.43,1.49-3.66,2.2a.73.73,0,0,0-.33,1.1,1.26,1.26,0,0,1-.29,1.59c-1.28,1.37-2.53,2.76-3.78,4.14q-4.24,4.66-8.48,9.32L56.8,56.58a2.7,2.7,0,0,1-3.64.55,4.73,4.73,0,0,1-1.38-1.42c-1-1.53-.51-3,.3-4.45C52.51,50.52,53,49.8,53.39,49.07Z"/><path class="cls-2" d="M86.77,20.41a1,1,0,0,1,1.46,0,1,1,0,0,1,0,1.46,1,1,0,0,1-1.44-1.47Z"/><path class="cls-2" d="M85.5,22a1,1,0,0,1,0,1.45,1,1,0,0,1-1.45,0A1,1,0,0,1,84,22,1,1,0,0,1,85.5,22Z"/><path class="cls-2" d="M78.72,26.66a1,1,0,0,1,0-1.44,1,1,0,0,1,1.45,0,1,1,0,0,1,0,1.46A1,1,0,0,1,78.72,26.66Z"/><path class="cls-2" d="M82.8,23.55a1.05,1.05,0,0,1-1.37,1.6,1.07,1.07,0,0,1-.1-1.47A1.06,1.06,0,0,1,82.8,23.55Z"/><path class="cls-2" d="M76.07,28.34A1,1,0,0,1,76,26.89a1,1,0,0,1,1.45-.12,1.05,1.05,0,0,1,.13,1.46A1.09,1.09,0,0,1,76.07,28.34Z"/><path class="cls-2" d="M47.6,69c-.67-.6-1.36-1.19-2-1.8a1.09,1.09,0,0,1-.2-1.51,1.07,1.07,0,0,1,1.53-.1q2.15,1.84,4.23,3.75a1,1,0,1,1-1.43,1.54C49,70.26,48.3,69.62,47.6,69Z"/><path class="cls-2" d="M52.48,63.56l2,1.79a1.06,1.06,0,0,1,.24,1.55,1.05,1.05,0,0,1-1.6,0Q51.08,65.12,49,63.29a1,1,0,0,1-.16-1.55,1.07,1.07,0,0,1,1.57,0Z"/><path class="cls-2" d="M44.16,72.89c-.67-.6-1.36-1.19-2-1.79a1.07,1.07,0,0,1-.22-1.51,1,1,0,0,1,1.5-.08q2.16,1.87,4.28,3.79a1,1,0,0,1,.09,1.44,1,1,0,0,1-1.51,0C45.57,74.15,44.87,73.52,44.16,72.89Z"/><path class="cls-2" d="M49.62,80.5a1,1,0,0,1-1.46.12,1,1,0,0,1-.07-1.47,1,1,0,0,1,1.41-.11A1,1,0,0,1,49.62,80.5Z"/><path class="cls-2" d="M43.83,82.35a1.1,1.1,0,0,1-.08-1.48,1.07,1.07,0,0,1,1.47,0,1.05,1.05,0,0,1,.08,1.47A1.09,1.09,0,0,1,43.83,82.35Z"/></svg>